0
SECTION
2
ENTITIES
0
LINE
8
PARAMETRIX
10
10.6000
20
3.0000
11
10.6000
21
5.0000
0
LINE
8
PARAMETRIX
10
10.6000
20
5.0000
11
7.6000
21
5.0000
0
ARC
8
PARAMETRIX
10
7.6000
20
10.6000
40
5.6000
50
90.0000
51
270.0000
0
LINE
8
PARAMETRIX
10
7.6000
20
16.2000
11
10.6000
21
16.2000
0
LINE
8
PARAMETRIX
10
10.6000
20
16.2000
11
10.6000
21
18.2000
0
LINE
8
PARAMETRIX
10
10.6000
20
18.2000
11
7.6000
21
18.2000
0
ARC
8
PARAMETRIX
10
7.6000
20
10.6000
40
7.6000
50
90.0000
51
270.0000
0
LINE
8
PARAMETRIX
10
7.6000
20
3.0000
11
10.6000
21
3.0000
0
ENDSEC
0
EOF
