0
SECTION
2
ENTITIES
0
ARC
8
PARAMETRIX
10
4.0000
20
4.1667
40
4.1667
50
196.2602
51
343.7398
0
LINE
8
PARAMETRIX
10
8.0000
20
3.0000
11
8.0000
21
10.1000
0
LINE
8
PARAMETRIX
10
8.0000
20
10.1000
11
7.0000
21
10.1000
0
LINE
8
PARAMETRIX
10
7.0000
20
10.1000
11
6.8410
21
10.6301
0
ARC
8
PARAMETRIX
10
5.5000
20
10.2279
40
1.4000
50
16.6992
51
163.3008
0
LINE
8
PARAMETRIX
10
4.1590
20
10.6301
11
3.4578
21
8.2928
0
ARC
8
PARAMETRIX
10
2.5000
20
8.5801
40
1.0000
50
196.6992
51
343.3008
0
LINE
8
PARAMETRIX
10
1.5422
20
8.2928
11
1.0000
21
10.1000
0
LINE
8
PARAMETRIX
10
1.0000
20
10.1000
11
0.0000
21
10.1000
0
LINE
8
PARAMETRIX
10
0.0000
20
10.1000
11
0.0000
21
3.0000
0
ARC
8
PARAMETRIX
10
4.0000
20
17.0333
40
4.1667
50
16.2602
51
163.7398
0
LINE
8
PARAMETRIX
10
8.0000
20
18.2000
11
8.0000
21
11.1000
0
LINE
8
PARAMETRIX
10
8.0000
20
11.1000
11
7.0000
21
11.1000
0
LINE
8
PARAMETRIX
10
7.0000
20
11.1000
11
6.4578
21
12.9072
0
ARC
8
PARAMETRIX
10
5.5000
20
12.6199
40
1.0000
50
16.6992
51
163.3008
0
LINE
8
PARAMETRIX
10
4.5422
20
12.9072
11
3.8410
21
10.5699
0
ARC
8
PARAMETRIX
10
2.5000
20
10.9721
40
1.4000
50
196.6992
51
343.3008
0
LINE
8
PARAMETRIX
10
1.1590
20
10.5699
11
1.0000
21
11.1000
0
LINE
8
PARAMETRIX
10
1.0000
20
11.1000
11
0.0000
21
11.1000
0
LINE
8
PARAMETRIX
10
0.0000
20
11.1000
11
0.0000
21
18.2000
0
ENDSEC
0
EOF
