0
SECTION
2
ENTITIES
0
ARC
8
PARAMETRIX
10
4.0000
20
4.1667
40
4.1667
50
196.2602
51
343.7398
0
LINE
8
PARAMETRIX
10
8.0000
20
3.0000
11
8.0000
21
6.0000
0
ARC
8
PARAMETRIX
10
4.0000
20
6.0000
40
4.0000
50
0.0000
51
180.0000
0
LINE
8
PARAMETRIX
10
0.0000
20
6.0000
11
0.0000
21
3.0000
0
ARC
8
PARAMETRIX
10
4.0000
20
17.0333
40
4.1667
50
16.2602
51
163.7398
0
LINE
8
PARAMETRIX
10
8.0000
20
18.2000
11
8.0000
21
15.2000
0
ARC
8
PARAMETRIX
10
4.0000
20
15.2000
40
4.0000
50
180.0000
51
0.0000
0
LINE
8
PARAMETRIX
10
0.0000
20
15.2000
11
0.0000
21
18.2000
0
ENDSEC
0
EOF
