0
SECTION
2
ENTITIES
0
LINE
8
PARAMETRIX
10
20.0000
20
20.0000
11
50.0000
21
20.0000
0
LINE
8
PARAMETRIX
10
50.0000
20
20.0000
11
50.0000
21
170.0000
0
LINE
8
PARAMETRIX
10
50.0000
20
170.0000
11
20.0000
21
170.0000
0
LINE
8
PARAMETRIX
10
20.0000
20
170.0000
11
20.0000
21
20.0000
0
LINE
8
PARAMETRIX
10
650.0000
20
20.0000
11
680.0000
21
20.0000
0
LINE
8
PARAMETRIX
10
680.0000
20
20.0000
11
680.0000
21
170.0000
0
LINE
8
PARAMETRIX
10
680.0000
20
170.0000
11
650.0000
21
170.0000
0
LINE
8
PARAMETRIX
10
650.0000
20
170.0000
11
650.0000
21
20.0000
0
LINE
8
PARAMETRIX
10
50.0000
20
20.0000
11
650.0000
21
20.0000
0
LINE
8
PARAMETRIX
10
650.0000
20
20.0000
11
650.0000
21
50.0000
0
LINE
8
PARAMETRIX
10
650.0000
20
50.0000
11
50.0000
21
50.0000
0
LINE
8
PARAMETRIX
10
50.0000
20
50.0000
11
50.0000
21
20.0000
0
ENDSEC
0
EOF
