0
SECTION
2
ENTITIES
0
LINE
8
PARAMETRIX
10
50.0000
20
70.0000
11
560.0000
21
70.0000
0
LINE
8
PARAMETRIX
10
560.0000
20
70.0000
11
560.0000
21
100.0000
0
LINE
8
PARAMETRIX
10
560.0000
20
100.0000
11
50.0000
21
100.0000
0
LINE
8
PARAMETRIX
10
50.0000
20
100.0000
11
50.0000
21
70.0000
0
LINE
8
PARAMETRIX
10
50.0000
20
430.0000
11
560.0000
21
430.0000
0
LINE
8
PARAMETRIX
10
560.0000
20
430.0000
11
560.0000
21
460.0000
0
LINE
8
PARAMETRIX
10
560.0000
20
460.0000
11
50.0000
21
460.0000
0
LINE
8
PARAMETRIX
10
50.0000
20
460.0000
11
50.0000
21
430.0000
0
LINE
8
PARAMETRIX
10
50.0000
20
600.0000
11
560.0000
21
600.0000
0
LINE
8
PARAMETRIX
10
560.0000
20
600.0000
11
560.0000
21
630.0000
0
LINE
8
PARAMETRIX
10
560.0000
20
630.0000
11
50.0000
21
630.0000
0
LINE
8
PARAMETRIX
10
50.0000
20
630.0000
11
50.0000
21
600.0000
0
LINE
8
PARAMETRIX
10
640.0000
20
70.0000
11
1150.0000
21
70.0000
0
LINE
8
PARAMETRIX
10
1150.0000
20
70.0000
11
1150.0000
21
100.0000
0
LINE
8
PARAMETRIX
10
1150.0000
20
100.0000
11
640.0000
21
100.0000
0
LINE
8
PARAMETRIX
10
640.0000
20
100.0000
11
640.0000
21
70.0000
0
LINE
8
PARAMETRIX
10
640.0000
20
430.0000
11
1150.0000
21
430.0000
0
LINE
8
PARAMETRIX
10
1150.0000
20
430.0000
11
1150.0000
21
460.0000
0
LINE
8
PARAMETRIX
10
1150.0000
20
460.0000
11
640.0000
21
460.0000
0
LINE
8
PARAMETRIX
10
640.0000
20
460.0000
11
640.0000
21
430.0000
0
LINE
8
PARAMETRIX
10
640.0000
20
600.0000
11
1150.0000
21
600.0000
0
LINE
8
PARAMETRIX
10
1150.0000
20
600.0000
11
1150.0000
21
630.0000
0
LINE
8
PARAMETRIX
10
1150.0000
20
630.0000
11
640.0000
21
630.0000
0
LINE
8
PARAMETRIX
10
640.0000
20
630.0000
11
640.0000
21
600.0000
0
LINE
8
PARAMETRIX
10
20.0000
20
120.0000
11
50.0000
21
120.0000
0
LINE
8
PARAMETRIX
10
50.0000
20
120.0000
11
50.0000
21
430.0000
0
LINE
8
PARAMETRIX
10
50.0000
20
430.0000
11
20.0000
21
430.0000
0
LINE
8
PARAMETRIX
10
20.0000
20
430.0000
11
20.0000
21
120.0000
0
LINE
8
PARAMETRIX
10
20.0000
20
480.0000
11
50.0000
21
480.0000
0
LINE
8
PARAMETRIX
10
50.0000
20
480.0000
11
50.0000
21
600.0000
0
LINE
8
PARAMETRIX
10
50.0000
20
600.0000
11
20.0000
21
600.0000
0
LINE
8
PARAMETRIX
10
20.0000
20
600.0000
11
20.0000
21
480.0000
0
LINE
8
PARAMETRIX
10
1150.0000
20
120.0000
11
1180.0000
21
120.0000
0
LINE
8
PARAMETRIX
10
1180.0000
20
120.0000
11
1180.0000
21
430.0000
0
LINE
8
PARAMETRIX
10
1180.0000
20
430.0000
11
1150.0000
21
430.0000
0
LINE
8
PARAMETRIX
10
1150.0000
20
430.0000
11
1150.0000
21
120.0000
0
LINE
8
PARAMETRIX
10
1150.0000
20
480.0000
11
1180.0000
21
480.0000
0
LINE
8
PARAMETRIX
10
1180.0000
20
480.0000
11
1180.0000
21
600.0000
0
LINE
8
PARAMETRIX
10
1180.0000
20
600.0000
11
1150.0000
21
600.0000
0
LINE
8
PARAMETRIX
10
1150.0000
20
600.0000
11
1150.0000
21
480.0000
0
LINE
8
PARAMETRIX
10
560.0000
20
120.0000
11
590.0000
21
120.0000
0
LINE
8
PARAMETRIX
10
590.0000
20
120.0000
11
590.0000
21
430.0000
0
LINE
8
PARAMETRIX
10
590.0000
20
430.0000
11
560.0000
21
430.0000
0
LINE
8
PARAMETRIX
10
560.0000
20
430.0000
11
560.0000
21
120.0000
0
LINE
8
PARAMETRIX
10
560.0000
20
480.0000
11
590.0000
21
480.0000
0
LINE
8
PARAMETRIX
10
590.0000
20
480.0000
11
590.0000
21
600.0000
0
LINE
8
PARAMETRIX
10
590.0000
20
600.0000
11
560.0000
21
600.0000
0
LINE
8
PARAMETRIX
10
560.0000
20
600.0000
11
560.0000
21
480.0000
0
LINE
8
PARAMETRIX
10
610.0000
20
120.0000
11
640.0000
21
120.0000
0
LINE
8
PARAMETRIX
10
640.0000
20
120.0000
11
640.0000
21
430.0000
0
LINE
8
PARAMETRIX
10
640.0000
20
430.0000
11
610.0000
21
430.0000
0
LINE
8
PARAMETRIX
10
610.0000
20
430.0000
11
610.0000
21
120.0000
0
LINE
8
PARAMETRIX
10
610.0000
20
480.0000
11
640.0000
21
480.0000
0
LINE
8
PARAMETRIX
10
640.0000
20
480.0000
11
640.0000
21
600.0000
0
LINE
8
PARAMETRIX
10
640.0000
20
600.0000
11
610.0000
21
600.0000
0
LINE
8
PARAMETRIX
10
610.0000
20
600.0000
11
610.0000
21
480.0000
0
ENDSEC
0
EOF
