0
SECTION
2
ENTITIES
0
LINE
8
PARAMETRIX
10
20.0000
20
20.0000
11
50.0000
21
20.0000
0
LINE
8
PARAMETRIX
10
50.0000
20
20.0000
11
50.0000
21
170.0000
0
LINE
8
PARAMETRIX
10
50.0000
20
170.0000
11
20.0000
21
170.0000
0
LINE
8
PARAMETRIX
10
20.0000
20
170.0000
11
20.0000
21
20.0000
0
LINE
8
PARAMETRIX
10
1150.0000
20
20.0000
11
1180.0000
21
20.0000
0
LINE
8
PARAMETRIX
10
1180.0000
20
20.0000
11
1180.0000
21
170.0000
0
LINE
8
PARAMETRIX
10
1180.0000
20
170.0000
11
1150.0000
21
170.0000
0
LINE
8
PARAMETRIX
10
1150.0000
20
170.0000
11
1150.0000
21
20.0000
0
LINE
8
PARAMETRIX
10
560.0000
20
20.0000
11
590.0000
21
20.0000
0
LINE
8
PARAMETRIX
10
590.0000
20
20.0000
11
590.0000
21
170.0000
0
LINE
8
PARAMETRIX
10
590.0000
20
170.0000
11
560.0000
21
170.0000
0
LINE
8
PARAMETRIX
10
560.0000
20
170.0000
11
560.0000
21
20.0000
0
LINE
8
PARAMETRIX
10
610.0000
20
20.0000
11
640.0000
21
20.0000
0
LINE
8
PARAMETRIX
10
640.0000
20
20.0000
11
640.0000
21
170.0000
0
LINE
8
PARAMETRIX
10
640.0000
20
170.0000
11
610.0000
21
170.0000
0
LINE
8
PARAMETRIX
10
610.0000
20
170.0000
11
610.0000
21
20.0000
0
ENDSEC
0
EOF
